<svg width="268" height="215" viewBox="0 0 268 215" fill="none" xmlns="http://www.w3.org/2000/svg">
<path d="M125.88 215C184.335 215 231.722 212.675 231.722 209.807C231.722 206.939 184.335 204.613 125.88 204.613C67.4256 204.613 20.0388 206.939 20.0388 209.807C20.0388 212.675 67.4256 215 125.88 215Z" fill="#F2F2F2"/>
<path d="M187.717 49.8979H186.515V18.2924C186.515 13.441 184.507 8.78823 180.931 5.35774C177.356 1.92724 172.507 5.35636e-06 167.451 0H97.6658C92.6097 -9.18226e-06 87.7607 1.92721 84.1855 5.35769C80.6102 8.78817 78.6017 13.4409 78.6017 18.2924V191.683C78.6017 196.534 80.6102 201.187 84.1854 204.617C87.7606 208.048 92.6096 209.975 97.6657 209.975H167.451C172.507 209.975 177.356 208.048 180.931 204.617C184.506 201.187 186.515 196.534 186.515 191.683V72.3953H187.717L187.717 49.8979Z" fill="#3F3D56"/>
<path d="M182.457 18.4201V191.555C182.457 195.178 180.957 198.653 178.287 201.215C175.617 203.777 171.996 205.216 168.22 205.216H98.0999C94.3239 205.216 90.7026 203.777 88.0325 201.215C85.3625 198.653 83.8625 195.178 83.8624 191.555V18.4201C83.8625 14.7969 85.3625 11.3222 88.0325 8.7602C90.7026 6.19824 94.3239 4.75892 98.0999 4.75885H106.606C106.188 5.74441 106.029 6.81343 106.143 7.87187C106.256 8.93031 106.639 9.94574 107.258 10.8288C107.877 11.7119 108.712 12.4356 109.69 12.9363C110.669 13.4369 111.761 13.6992 112.87 13.6999H152.849C153.958 13.6992 155.049 13.4369 156.028 12.9363C157.006 12.4356 157.842 11.7119 158.46 10.8288C159.079 9.94572 159.462 8.9303 159.576 7.87186C159.689 6.81342 159.53 5.74441 159.112 4.75885H168.22C171.996 4.75892 175.617 6.19824 178.287 8.7602C180.957 11.3222 182.457 14.7969 182.457 18.4201Z" fill="white"/>
<path d="M159.868 93.0752C159.402 93.3089 158.928 93.5301 158.446 93.7388C158.007 93.9292 157.561 94.1081 157.108 94.2754C156.942 94.336 156.774 94.3966 156.606 94.4572C155.274 94.9205 153.907 95.2822 152.516 95.5391C151.828 95.6689 151.13 95.7709 150.423 95.8449C149.84 95.9084 149.251 95.9536 148.656 95.9805C148.231 96.0007 147.807 96.0094 147.381 96.0094C145.69 96.01 144.002 95.8584 142.341 95.5564C141.908 95.4814 141.484 95.392 141.06 95.2939C139.009 94.8223 137.024 94.1192 135.146 93.1992C134.977 93.1185 134.809 93.0319 134.64 92.9482C134.391 92.8213 134.147 92.6886 133.904 92.5501C134.021 92.3943 134.147 92.2414 134.277 92.0913C135.684 90.4183 137.442 89.0485 139.438 88.0712C141.434 87.0939 143.621 86.5312 145.859 86.4196C148.096 86.308 150.333 86.65 152.424 87.4235C154.514 88.1969 156.412 89.3843 157.992 90.9084C158.54 91.4365 159.049 92.0015 159.513 92.5991C159.636 92.7549 159.754 92.9136 159.868 93.0752Z" fill="#2D9CDB"/>
<path d="M147.981 80.4015C155.272 80.4015 161.184 74.7296 161.184 67.7329C161.184 60.7362 155.272 55.0642 147.981 55.0642C140.689 55.0642 134.778 60.7362 134.778 67.7329C134.778 74.7296 140.689 80.4015 147.981 80.4015Z" fill="#2F2E41"/>
<path d="M151.492 80.4194C156.254 77.9216 158.004 72.1926 155.401 67.6233C152.798 63.054 146.827 61.3747 142.065 63.8725C137.303 66.3703 135.553 72.0993 138.156 76.6686C140.759 81.2379 146.73 82.9172 151.492 80.4194Z" fill="#A0616A"/>
<path d="M157.104 66.2151C154.859 67.7002 152.194 68.4905 149.466 68.4801C150.439 69.1273 151.547 69.5645 152.713 69.7615C149.087 70.5078 145.339 70.5281 141.704 69.8209C140.897 69.6966 140.117 69.4397 139.4 69.0614C139.043 68.87 138.731 68.6085 138.486 68.294C138.241 67.9795 138.068 67.6191 137.978 67.2361C137.736 65.9122 138.811 64.7095 139.928 63.8989C141.639 62.6767 143.611 61.8347 145.703 61.4337C147.794 61.0327 149.952 61.0828 152.021 61.5803C153.372 61.9153 154.725 62.4814 155.602 63.5222C156.48 64.5631 156.74 66.1679 155.904 67.2397L157.104 66.2151Z" fill="#2F2E41"/>
<path d="M147.381 44.0766C141.479 44.0758 135.738 45.9265 131.035 49.3467C126.331 52.7669 122.921 57.569 121.326 63.0212C119.731 68.4733 120.037 74.2764 122.198 79.546C124.359 84.8156 128.257 89.2628 133.296 92.2096L133.471 92.3077C133.615 92.3914 133.76 92.4722 133.904 92.55C134.147 92.6885 134.391 92.8212 134.64 92.9482C134.809 93.0319 134.977 93.1184 135.146 93.1992C137.024 94.1191 139.009 94.8222 141.06 95.2938C141.484 95.3919 141.908 95.4814 142.341 95.5564C144.002 95.8584 145.69 96.01 147.381 96.0093C147.807 96.0093 148.232 96.0007 148.656 95.9805C149.251 95.9545 149.84 95.9093 150.424 95.8449C151.13 95.7699 151.828 95.6679 152.516 95.5391C153.907 95.2822 155.274 94.9204 156.606 94.4571C156.774 94.3965 156.942 94.3359 157.108 94.2754C157.562 94.108 158.008 93.9291 158.446 93.7387C158.927 93.531 159.401 93.3098 159.868 93.0751C164.549 90.7229 168.418 87.1178 171.005 82.6972C171.017 82.6742 171.033 82.6511 171.045 82.628C172.425 80.251 173.404 77.6793 173.946 75.0083C174.707 71.2482 174.592 67.3732 173.609 63.6609C172.626 59.9485 170.8 56.4906 168.261 53.5347C165.722 50.5788 162.534 48.198 158.924 46.5629C155.314 44.9278 151.372 44.0788 147.381 44.0766H147.381ZM170.551 82.2904C170.527 82.3308 170.506 82.3712 170.482 82.4087C167.946 86.7641 164.132 90.3078 159.513 92.5991C159.053 92.8299 158.585 93.0463 158.109 93.2482C157.715 93.4185 157.312 93.58 156.906 93.7301C156.735 93.7935 156.561 93.857 156.386 93.9147C155.236 94.3178 154.057 94.6418 152.859 94.8841C151.97 95.0657 151.072 95.2015 150.168 95.2909C149.612 95.3486 149.046 95.389 148.478 95.4092C148.114 95.4237 147.747 95.4323 147.381 95.4323C145.744 95.4342 144.111 95.2883 142.503 94.9966C141.525 94.8235 140.558 94.5962 139.608 94.3158C138.16 93.8865 136.752 93.3392 135.401 92.6799C135.245 92.602 135.089 92.5241 134.935 92.4433C134.716 92.3308 134.493 92.2154 134.277 92.0913C134.114 92.0047 133.952 91.9124 133.793 91.8201C133.699 91.7682 133.606 91.7133 133.513 91.6585C129.094 89.0548 125.569 85.2635 123.376 80.7551C121.182 76.2467 120.416 71.2195 121.173 66.2973C121.93 61.375 124.177 56.7744 127.634 53.066C131.091 49.3576 135.607 46.7048 140.621 45.4366C145.635 44.1683 150.927 44.3406 155.84 45.9319C160.753 47.5232 165.071 50.4635 168.258 54.3881C171.446 58.3127 173.362 63.0489 173.77 68.009C174.177 72.9692 173.058 77.935 170.551 82.2904H170.551Z" fill="#3F3D56"/>
<path d="M141.295 55.2391C141.152 53.8057 139.322 52.9233 137.891 53.3563C136.46 53.7892 135.521 55.1719 135.237 56.5856C135.1 57.181 135.087 57.7965 135.199 58.3966C135.311 58.9968 135.545 59.5699 135.888 60.0831C136.611 61.082 137.94 61.7054 139.18 61.4519C140.596 61.1624 141.576 59.8363 141.857 58.4741C142.137 57.1119 141.859 55.7074 141.581 54.3447L141.295 55.2391Z" fill="#2F2E41"/>
<path d="M161.435 57.2867C161.293 55.8533 159.463 54.9709 158.032 55.4039C156.601 55.8368 155.661 57.2195 155.377 58.6333C155.241 59.2287 155.228 59.8441 155.34 60.4443C155.451 61.0444 155.685 61.6175 156.028 62.1307C156.752 63.1297 158.081 63.7531 159.321 63.4995C160.736 63.21 161.717 61.8839 161.997 60.5217C162.278 59.1595 161.999 57.755 161.721 56.3924L161.435 57.2867Z" fill="#2F2E41"/>
<path d="M100.605 80.4204C100.417 80.4203 100.232 80.3826 100.061 80.3098C99.8899 80.2371 99.7364 80.1309 99.6105 79.9979L84.6898 64.3797C84.5205 64.2028 84.3148 64.0616 84.0857 63.9649C83.8566 63.8682 83.6091 63.8181 83.3589 63.8178H4.51308C3.31655 63.8165 2.16941 63.3599 1.32333 62.5481C0.477258 61.7362 0.0013434 60.6355 0 59.4874V32.2047C0.00134261 31.0566 0.477257 29.9559 1.32333 29.1441C2.16941 28.3322 3.31655 27.8756 4.51308 27.8743H106.664C107.86 27.8756 109.007 28.3322 109.853 29.1441C110.7 29.9559 111.175 31.0566 111.177 32.2047V59.4874C111.175 60.6355 110.7 61.7362 109.853 62.5481C109.007 63.3599 107.86 63.8166 106.664 63.8178H103.768C103.289 63.8184 102.83 64.0011 102.492 64.3259C102.153 64.6507 101.963 65.091 101.962 65.5503V79.1201C101.963 79.3821 101.881 79.6382 101.727 79.8545C101.573 80.0707 101.354 80.2368 101.099 80.3307C100.942 80.3898 100.774 80.4203 100.605 80.4204Z" fill="white"/>
<path d="M100.605 80.4204C100.417 80.4203 100.232 80.3826 100.061 80.3098C99.8899 80.2371 99.7364 80.1309 99.6105 79.9979L84.6898 64.3797C84.5205 64.2028 84.3148 64.0616 84.0857 63.9649C83.8566 63.8682 83.6091 63.8181 83.3589 63.8178H4.51308C3.31655 63.8165 2.16941 63.3599 1.32333 62.5481C0.477258 61.7362 0.0013434 60.6355 0 59.4874V32.2047C0.00134261 31.0566 0.477257 29.9559 1.32333 29.1441C2.16941 28.3322 3.31655 27.8756 4.51308 27.8743H106.664C107.86 27.8756 109.007 28.3322 109.853 29.1441C110.7 29.9559 111.175 31.0566 111.177 32.2047V59.4874C111.175 60.6355 110.7 61.7362 109.853 62.5481C109.007 63.3599 107.86 63.8166 106.664 63.8178H103.768C103.289 63.8184 102.83 64.0011 102.492 64.3259C102.153 64.6507 101.963 65.091 101.962 65.5503V79.1201C101.963 79.3821 101.881 79.6382 101.727 79.8545C101.573 80.0707 101.354 80.2368 101.099 80.3307C100.942 80.3898 100.774 80.4203 100.605 80.4204ZM4.51308 28.4513C3.47599 28.4525 2.48171 28.8483 1.74838 29.5519C1.01504 30.2556 0.602543 31.2096 0.601372 32.2047V59.4874C0.602545 60.4825 1.01505 61.4366 1.74838 62.1402C2.48171 62.8439 3.47599 63.2397 4.51308 63.2408H83.3589C83.6925 63.2412 84.0224 63.3079 84.3278 63.4368C84.6331 63.5657 84.9073 63.754 85.133 63.9897L100.054 79.608C100.156 79.7152 100.29 79.7902 100.438 79.8233C100.585 79.8563 100.74 79.8457 100.881 79.793C101.022 79.7402 101.144 79.6478 101.229 79.5277C101.315 79.4077 101.361 79.2656 101.361 79.1201V65.5503C101.362 64.938 101.615 64.351 102.067 63.918C102.518 63.4851 103.13 63.2415 103.768 63.2408H106.664C107.701 63.2397 108.695 62.8439 109.428 62.1402C110.162 61.4366 110.574 60.4825 110.575 59.4874V32.2047C110.574 31.2096 110.162 30.2556 109.428 29.5519C108.695 28.8483 107.701 28.4525 106.664 28.4513H4.51308Z" fill="#3F3D56"/>
<path d="M11.0701 39.9095C13.2511 39.9095 15.0192 38.213 15.0192 36.1202C15.0192 34.0275 13.2511 32.331 11.0701 32.331C8.88902 32.331 7.12094 34.0275 7.12094 36.1202C7.12094 38.213 8.88902 39.9095 11.0701 39.9095Z" fill="#2D9CDB"/>
<path d="M102.056 57.0875H9.1204C8.8436 57.0879 8.56945 57.0358 8.31363 56.9344C8.0578 56.833 7.82532 56.6842 7.62947 56.4965C7.43363 56.3088 7.27826 56.0859 7.17225 55.8405C7.06625 55.5952 7.01169 55.3322 7.01169 55.0666C7.01169 54.801 7.06625 54.538 7.17225 54.2927C7.27826 54.0473 7.43363 53.8244 7.62947 53.6367C7.82532 53.449 8.0578 53.3002 8.31363 53.1988C8.56945 53.0974 8.8436 53.0453 9.1204 53.0457H102.056C102.615 53.0463 103.15 53.2595 103.544 53.6384C103.939 54.0174 104.16 54.531 104.16 55.0666C104.16 55.6022 103.939 56.1158 103.544 56.4948C103.15 56.8737 102.615 57.0869 102.056 57.0875Z" fill="#E6E6E6"/>
<path d="M71.7798 48.4985H9.1204C8.8436 48.4989 8.56945 48.4468 8.31363 48.3454C8.0578 48.244 7.82532 48.0952 7.62947 47.9075C7.43363 47.7198 7.27826 47.4969 7.17225 47.2515C7.06625 47.0062 7.01169 46.7432 7.01169 46.4776C7.01169 46.212 7.06625 45.949 7.17225 45.7036C7.27826 45.4583 7.43363 45.2354 7.62947 45.0477C7.82532 44.86 8.0578 44.7112 8.31363 44.6098C8.56945 44.5084 8.8436 44.4563 9.1204 44.4566H71.7798C72.3384 44.4566 72.8741 44.6696 73.2691 45.0486C73.6641 45.4276 73.886 45.9416 73.886 46.4776C73.886 47.0136 73.6641 47.5276 73.2691 47.9066C72.8741 48.2856 72.3384 48.4985 71.7798 48.4985Z" fill="#E6E6E6"/>
<path d="M166.901 172.944C166.646 172.85 166.427 172.684 166.273 172.468C166.119 172.252 166.037 171.996 166.038 171.734V158.164C166.037 157.704 165.847 157.264 165.508 156.939C165.17 156.615 164.711 156.432 164.232 156.431H161.336C160.14 156.43 158.993 155.973 158.147 155.162C157.3 154.35 156.825 153.249 156.823 152.101V124.818C156.825 123.67 157.3 122.569 158.147 121.757C158.993 120.946 160.14 120.489 161.336 120.488H263.487C264.683 120.489 265.831 120.946 266.677 121.757C267.523 122.569 267.999 123.67 268 124.818V152.101C267.999 153.249 267.523 154.35 266.677 155.162C265.831 155.973 264.683 156.43 263.487 156.431H184.641C184.391 156.432 184.143 156.482 183.914 156.578C183.685 156.675 183.48 156.816 183.31 156.993L168.39 172.611C168.264 172.744 168.11 172.851 167.939 172.923C167.768 172.996 167.583 173.034 167.395 173.034C167.226 173.034 167.058 173.003 166.901 172.944Z" fill="white"/>
<path d="M166.901 172.944C166.646 172.85 166.427 172.684 166.273 172.468C166.119 172.252 166.037 171.996 166.038 171.734V158.164C166.037 157.704 165.847 157.264 165.508 156.939C165.17 156.615 164.711 156.432 164.232 156.431H161.336C160.14 156.43 158.993 155.973 158.147 155.162C157.3 154.35 156.825 153.249 156.823 152.101V124.818C156.825 123.67 157.3 122.569 158.147 121.757C158.993 120.946 160.14 120.489 161.336 120.488H263.487C264.683 120.489 265.831 120.946 266.677 121.757C267.523 122.569 267.999 123.67 268 124.818V152.101C267.999 153.249 267.523 154.35 266.677 155.162C265.831 155.973 264.683 156.43 263.487 156.431H184.641C184.391 156.432 184.143 156.482 183.914 156.578C183.685 156.675 183.48 156.816 183.31 156.993L168.39 172.611C168.264 172.744 168.11 172.851 167.939 172.923C167.768 172.996 167.583 173.034 167.395 173.034C167.226 173.034 167.058 173.003 166.901 172.944ZM161.336 121.065C160.299 121.066 159.305 121.462 158.572 122.165C157.838 122.869 157.426 123.823 157.425 124.818V152.101C157.426 153.096 157.838 154.05 158.572 154.754C159.305 155.457 160.299 155.853 161.336 155.854H164.232C164.87 155.855 165.482 156.098 165.933 156.531C166.385 156.964 166.638 157.551 166.639 158.164V171.734C166.639 171.879 166.685 172.021 166.771 172.141C166.856 172.261 166.978 172.354 167.119 172.406C167.26 172.459 167.415 172.47 167.562 172.437C167.71 172.404 167.844 172.329 167.946 172.221L182.867 156.603C183.093 156.367 183.367 156.179 183.672 156.05C183.978 155.921 184.308 155.855 184.641 155.854H263.487C264.524 155.853 265.518 155.457 266.252 154.754C266.985 154.05 267.397 153.096 267.399 152.101V124.818C267.397 123.823 266.985 122.869 266.252 122.165C265.518 121.462 264.524 121.066 263.487 121.065H161.336Z" fill="#3F3D56"/>
<path d="M135.062 181.393C130.872 183.966 126.019 185.37 121.045 185.446C116.072 185.522 111.174 184.267 106.902 181.822C107.654 180.48 108.606 179.25 109.729 178.173C111.461 176.503 113.569 175.236 115.891 174.469C118.214 173.703 120.688 173.458 123.124 173.752C125.561 174.047 127.895 174.873 129.946 176.168C131.998 177.463 133.713 179.192 134.959 181.222C134.992 181.277 135.028 181.335 135.062 181.393Z" fill="#2D9CDB"/>
<path d="M119.806 167.596C127.146 167.596 133.097 161.886 133.097 154.843C133.097 147.8 127.146 142.09 119.806 142.09C112.466 142.09 106.515 147.8 106.515 154.843C106.515 161.886 112.466 167.596 119.806 167.596Z" fill="#2F2E41"/>
<path d="M129.696 163.838C132.316 159.238 130.554 153.471 125.761 150.957C120.967 148.442 114.957 150.133 112.336 154.732C109.716 159.332 111.477 165.099 116.271 167.614C121.065 170.128 127.075 168.438 129.696 163.838Z" fill="#FFB8B8"/>
<path d="M110.622 153.315C112.882 154.81 115.565 155.606 118.311 155.595C117.331 156.247 116.216 156.687 115.043 156.885C118.693 157.636 122.465 157.657 126.124 156.945C126.937 156.82 127.722 156.561 128.444 156.18C128.804 155.988 129.117 155.724 129.364 155.408C129.61 155.091 129.785 154.728 129.876 154.343C130.119 153.01 129.037 151.799 127.912 150.983C126.19 149.753 124.204 148.905 122.099 148.502C119.994 148.098 117.821 148.149 115.739 148.649C114.379 148.987 113.017 149.556 112.134 150.604C111.251 151.652 110.989 153.267 111.83 154.346L110.622 153.315Z" fill="#2F2E41"/>
<path d="M120.619 185.738C114.11 185.736 107.82 183.482 102.903 179.39C97.9854 175.298 94.7705 169.642 93.8477 163.459C92.925 157.277 94.3564 150.982 97.8792 145.73C101.402 140.478 106.78 136.621 113.027 134.867C119.274 133.112 125.971 133.577 131.889 136.177C137.808 138.777 142.551 143.337 145.248 149.021C147.946 154.705 148.418 161.132 146.576 167.122C144.735 173.113 140.704 178.266 135.224 181.635C130.866 184.317 125.797 185.741 120.619 185.738ZM120.619 134.382C115.385 134.381 110.269 135.87 105.917 138.66C101.564 141.45 98.1721 145.416 96.1689 150.056C94.1657 154.695 93.6414 159.801 94.6624 164.727C95.6834 169.652 98.2038 174.177 101.905 177.728C105.606 181.28 110.321 183.698 115.455 184.678C120.588 185.657 125.909 185.154 130.745 183.232C135.581 181.31 139.713 178.055 142.621 173.879C145.529 169.703 147.08 164.793 147.08 159.771C147.072 153.04 144.282 146.586 139.321 141.827C134.36 137.067 127.635 134.39 120.619 134.382Z" fill="#3F3D56"/>
<path d="M169.532 132.234C171.713 132.234 173.481 130.538 173.481 128.445C173.481 126.352 171.713 124.656 169.532 124.656C167.351 124.656 165.583 126.352 165.583 128.445C165.583 130.538 167.351 132.234 169.532 132.234Z" fill="#2D9CDB"/>
<path d="M260.518 149.412H167.582C167.305 149.413 167.031 149.361 166.775 149.259C166.519 149.158 166.287 149.009 166.091 148.821C165.895 148.634 165.74 148.411 165.634 148.165C165.528 147.92 165.473 147.657 165.473 147.392C165.473 147.126 165.528 146.863 165.634 146.618C165.74 146.372 165.895 146.149 166.091 145.962C166.287 145.774 166.519 145.625 166.775 145.524C167.031 145.422 167.305 145.37 167.582 145.371H260.518C261.077 145.371 261.612 145.584 262.007 145.963C262.402 146.342 262.624 146.856 262.624 147.392C262.624 147.928 262.402 148.442 262.007 148.821C261.612 149.2 261.077 149.412 260.518 149.412Z" fill="#E6E6E6"/>
<path d="M230.241 140.823H167.582C167.305 140.824 167.031 140.772 166.775 140.67C166.519 140.569 166.287 140.42 166.091 140.232C165.895 140.045 165.74 139.822 165.634 139.576C165.528 139.331 165.473 139.068 165.473 138.802C165.473 138.537 165.528 138.274 165.634 138.029C165.74 137.783 165.895 137.56 166.091 137.373C166.287 137.185 166.519 137.036 166.775 136.935C167.031 136.833 167.305 136.781 167.582 136.782H230.241C230.8 136.782 231.335 136.995 231.729 137.374C232.124 137.753 232.345 138.267 232.345 138.802C232.345 139.338 232.124 139.852 231.729 140.231C231.335 140.61 230.8 140.823 230.241 140.823Z" fill="#E6E6E6"/>
<path d="M166.774 175.527C170.843 175.527 174.142 175.176 174.142 174.742C174.142 174.309 170.843 173.958 166.774 173.958C162.704 173.958 159.406 174.309 159.406 174.742C159.406 175.176 162.704 175.527 166.774 175.527Z" fill="#F2F2F2"/>
<path d="M100.923 83.2022C104.993 83.2022 108.291 82.8509 108.291 82.4176C108.291 81.9842 104.993 81.6329 100.923 81.6329C96.8541 81.6329 93.5554 81.9842 93.5554 82.4176C93.5554 82.8509 96.8541 83.2022 100.923 83.2022Z" fill="#F2F2F2"/>
</svg>
