<svg width="20" height="16" viewBox="0 0 20 16" fill="none" xmlns="http://www.w3.org/2000/svg">
<path d="M6.99992 9.5C7.66514 9.49983 8.31154 9.72076 8.8375 10.1281C9.36345 10.5354 9.73911 11.1059 9.90542 11.75H18.2499C18.4373 11.7497 18.6181 11.8195 18.7566 11.9458C18.8951 12.072 18.9813 12.2456 18.9982 12.4322C19.0152 12.6189 18.9616 12.8051 18.8481 12.9542C18.7346 13.1034 18.5693 13.2046 18.3849 13.238L18.2499 13.25L9.90542 13.2515C9.73967 13.8961 9.36425 14.4674 8.83824 14.8752C8.31224 15.2831 7.66553 15.5045 6.99992 15.5045C6.33431 15.5045 5.6876 15.2831 5.16159 14.8752C4.63559 14.4674 4.26016 13.8961 4.09442 13.2515L1.74992 13.25C1.5625 13.2503 1.38174 13.1805 1.24324 13.0542C1.10474 12.928 1.01854 12.7544 1.0016 12.5678C0.98467 12.3811 1.03823 12.1949 1.15175 12.0458C1.26526 11.8966 1.4305 11.7954 1.61492 11.762L1.74992 11.75H4.09442C4.26072 11.1059 4.63639 10.5354 5.16234 10.1281C5.68829 9.72076 6.3347 9.49983 6.99992 9.5ZM12.9999 0.5C13.6651 0.499831 14.3115 0.720764 14.8375 1.12806C15.3634 1.53535 15.7391 2.10591 15.9054 2.75H18.2499C18.4373 2.74966 18.6181 2.81949 18.7566 2.94576C18.8951 3.07203 18.9813 3.24558 18.9982 3.43223C19.0152 3.61889 18.9616 3.80511 18.8481 3.95425C18.7346 4.10338 18.5693 4.20461 18.3849 4.238L18.2499 4.25L15.9054 4.2515C15.7397 4.89614 15.3642 5.46736 14.8382 5.87523C14.3122 6.2831 13.6655 6.50446 12.9999 6.50446C12.3343 6.50446 11.6876 6.2831 11.1616 5.87523C10.6356 5.46736 10.2602 4.89614 10.0944 4.2515L1.74992 4.25C1.5625 4.25034 1.38174 4.18051 1.24324 4.05424C1.10474 3.92797 1.01854 3.75442 1.0016 3.56777C0.98467 3.38111 1.03823 3.19489 1.15175 3.04575C1.26526 2.89662 1.4305 2.79539 1.61492 2.762L1.74992 2.75H10.0944C10.2607 2.10591 10.6364 1.53535 11.1623 1.12806C11.6883 0.720764 12.3347 0.499831 12.9999 0.5Z" fill="white"/>
</svg>
